<svg width="24" height="18" viewBox="0 0 24 18" fill="none" xmlns="http://www.w3.org/2000/svg">
    <path fill-rule="evenodd" clip-rule="evenodd"
        d="M6.67737 4.27842C6.15305 2.52727 7.48684 0.728149 9.31008 0.728149H14.8064C16.6292 0.728149 17.9624 2.52635 17.4391 4.27707V4.27842L16.5544 7.239C17.4279 7.99814 18.1099 8.97312 18.5153 10.0818H19.5V5.5631H21V7.06934H22.5V10.0818H24V11.5881H22.5V14.6005H21V16.1068H19.5V11.5881H18.879C18.914 11.8693 18.932 12.1558 18.932 12.4466C18.932 14.7157 17.5098 16.4525 17.2874 16.7118C17.2629 16.7448 17.2369 16.7767 17.2096 16.8074L17.2055 16.8127C16.9688 17.0772 16.6393 17.2397 16.2859 17.2665L16.2765 17.2718H7.84L7.82926 17.2665C7.47681 17.2391 7.14842 17.0766 6.91231 16.8127H6.91097L6.90291 16.8033C6.87548 16.7718 6.8495 16.739 6.82505 16.705C6.59168 16.4321 5.18447 14.7046 5.18447 12.4466C5.18447 12.1558 5.20249 11.8693 5.23746 11.5881H4.5V16.1068H3V14.6005H1.5V11.5881H0V10.0818H1.5V7.06934H3V5.5631H4.5V10.0818H5.60126C6.00662 8.97312 6.68856 7.99814 7.5621 7.239L6.67737 4.27842ZM14.8064 2.10679H9.31008C8.37006 2.10679 7.72276 2.97852 7.99305 3.88125L8.7489 6.40562C9.73073 5.86365 10.8583 5.55339 12.0583 5.55339C13.2582 5.55339 14.3858 5.86365 15.3676 6.40562L16.1235 3.88125C16.3937 2.97852 15.7464 2.10679 14.8064 2.10679Z"
        fill="black" />
</svg>
    